<svg width="1000" height="1000" viewBox="0 0 1000 1000" fill="none" xmlns="http://www.w3.org/2000/svg">
<mask id="mask0_144_4310" style="mask-type:alpha" maskUnits="userSpaceOnUse" x="0" y="0" width="1000" height="1000">
<circle cx="500" cy="500" r="500" fill="#D9D9D9"/>
</mask>
<g mask="url(#mask0_144_4310)">
<circle cx="500" cy="500" r="500" fill="#000042"/>
</g>
<g clip-path="url(#clip0_144_4310)">
<mask id="mask1_144_4310" style="mask-type:alpha" maskUnits="userSpaceOnUse" x="588" y="302" width="107" height="307">
<path d="M588.943 302.132H694.09V608.015H588.943V302.132Z" fill="#0000FF"/>
</mask>
<g mask="url(#mask1_144_4310)">
<rect width="90.8007" height="523.47" transform="matrix(0.341789 0.939777 -0.939608 0.342251 730.077 439.779)" fill="#9DF1F4"/>
<rect width="90.8007" height="523.47" transform="matrix(0.341789 0.939777 -0.939608 0.342251 730.077 296.397)" fill="#9DF1F4"/>
</g>
<mask id="mask2_144_4310" style="mask-type:alpha" maskUnits="userSpaceOnUse" x="302" y="398" width="106" height="307">
<path d="M302.255 398.676H407.321V704.559H302.255V398.676Z" fill="#0000FF"/>
</mask>
<g mask="url(#mask2_144_4310)">
<rect width="90.8007" height="523.47" transform="matrix(0.341789 0.939777 -0.939608 0.342251 730.077 439.779)" fill="#9DF1F4"/>
<rect width="90.8007" height="523.47" transform="matrix(0.341789 0.939777 -0.939608 0.342251 730.077 296.397)" fill="#9DF1F4"/>
</g>
<rect x="426.438" y="175" width="143.382" height="650" fill="white"/>
</g>
<defs>
<clipPath id="clip0_144_4310">
<rect width="384.265" height="650" fill="white" transform="translate(308 175)"/>
</clipPath>
</defs>
</svg>
